<svg version="1.1" id="Layer_1" xmlns="http://www.w3.org/2000/svg" xmlns:xlink="http://www.w3.org/1999/xlink" x="0px" y="0px"
	 width="100%" viewBox="0 0 1024 1024" enable-background="new 0 0 1024 1024" xml:space="preserve">
<rect width="100%" height="100%" fill="#0b3d91"/>
<g transform="translate(512 512) scale(1.45) translate(-512 -512)">
<path fill="#ffb81c" opacity="1.000000" stroke="none" 
	d="
M701.015503,669.944580 
	C679.921692,702.973694 652.818176,729.250793 619.556458,749.343079 
	C589.397522,767.561096 557.896301,782.980347 525.339111,796.373169 
	C517.754211,799.493225 510.938385,800.246643 502.968079,796.817871 
	C456.931396,777.013367 411.669067,755.656311 372.736694,723.573914 
	C333.292480,691.069885 306.864075,650.148254 299.009979,598.743835 
	C297.457733,588.584534 296.853638,578.192261 296.816681,567.903809 
	C296.592285,505.406830 296.709412,442.908691 296.537323,380.411407 
	C296.522675,375.083344 298.638184,372.077545 303.264313,370.015167 
	C331.256531,357.535858 359.797974,346.394836 388.206116,334.925781 
	C392.295441,333.274841 394.033447,333.906708 394.827301,338.594238 
	C396.296387,347.268707 398.302185,355.863342 400.392700,364.415894 
	C401.203156,367.731567 399.670807,368.839386 397.102875,369.927979 
	C377.940887,378.050995 358.858521,386.364685 339.629059,394.323486 
	C335.569733,396.003571 334.239288,398.235626 334.253754,402.528107 
	C334.414490,450.192657 333.999695,497.862854 334.610535,545.520386 
	C334.871918,565.914307 334.447205,586.438477 339.294312,606.617554 
	C344.869537,629.828003 356.084137,649.946594 370.876038,668.328430 
	C371.777679,669.448853 372.653595,670.800842 374.477020,670.829956 
	C376.414459,669.108826 375.607971,666.794128 375.610870,664.760986 
	C375.661560,629.428955 375.724213,594.096436 375.539307,558.765320 
	C375.515961,554.313477 376.731262,551.857849 380.945923,550.077026 
	C394.288940,544.439148 407.427460,538.319275 420.724731,532.570007 
	C424.584717,530.901123 426.240936,528.618225 426.107361,524.222534 
	C425.798737,514.066467 426.214203,503.889557 425.981140,493.729248 
	C425.883545,489.473358 427.414337,487.044495 431.220398,485.184753 
	C450.973602,475.532776 470.618835,465.659912 490.319458,455.900024 
	C496.137268,453.017822 502.232880,450.622284 507.791443,447.315063 
	C512.066711,444.771393 515.514343,445.713013 519.424255,447.653351 
	C538.364441,457.052399 557.356567,466.346771 576.332031,475.674652 
	C582.903503,478.905060 589.403992,482.295197 596.083679,485.284271 
	C599.895996,486.990204 601.483582,489.239899 601.435425,493.620514 
	C601.197083,515.283875 601.421997,536.952148 601.227539,558.616333 
	C601.182312,563.662292 602.543457,566.436218 607.835266,567.913208 
	C620.649109,571.489441 633.210449,575.964478 645.999573,579.638794 
	C650.821411,581.024048 652.480225,583.256714 652.428833,588.341064 
	C652.169312,614.004211 652.292725,639.671387 652.354370,665.336975 
	C652.358826,667.200012 651.564575,669.359802 653.667419,671.081116 
	C656.290649,670.057495 657.535339,667.591980 659.075500,665.533081 
	C675.707825,643.298157 687.169861,618.791443 691.229187,591.140930 
	C692.072021,585.399597 692.602356,579.555542 692.612122,573.757629 
	C692.700378,521.259705 692.662415,468.761505 692.591370,416.263458 
	C692.584167,410.940369 691.977173,405.619659 691.909485,400.294525 
	C691.860657,396.452240 689.208435,395.278107 686.390503,394.091675 
	C668.435242,386.531708 650.489746,378.948120 632.516296,371.431580 
	C625.855835,368.646149 625.864136,368.727417 627.423767,361.427551 
	C629.194092,353.141479 630.889832,344.839478 632.606384,336.541992 
	C632.807617,335.569244 632.827881,334.530823 634.211975,333.730408 
	C639.161804,334.615631 643.917236,337.080688 648.814758,338.979248 
	C673.490967,348.545105 697.988403,358.551819 722.284302,369.058868 
	C728.182800,371.609741 730.422852,375.415375 730.408813,381.780334 
	C730.267639,445.777771 730.953064,509.784119 730.083435,573.769958 
	C729.616516,608.123413 719.358459,640.249878 701.015503,669.944580 
M560.929016,740.364990 
	C563.017700,739.332703 565.087280,738.259338 567.199829,737.278625 
	C569.773315,736.084045 570.707825,734.176819 570.692322,731.308960 
	C570.595459,713.327576 570.599243,695.345276 570.686584,677.363831 
	C570.704468,673.679688 569.125977,671.927551 565.561707,671.322876 
	C556.890076,669.851929 548.255371,668.165039 539.594849,666.626770 
	C535.294189,665.862915 533.359314,667.400574 533.346191,671.996460 
	C533.274109,697.303833 533.268250,722.611694 533.340759,747.919067 
	C533.354248,752.626526 534.547974,753.320984 538.774963,751.301086 
	C545.980835,747.857666 553.105774,744.244934 560.929016,740.364990 
M463.252380,716.404846 
	C472.037445,715.914062 480.817902,715.266052 489.609772,715.006104 
	C493.389282,714.894348 494.914978,713.693665 494.851807,709.735962 
	C494.644867,696.769470 494.752899,683.798035 494.679504,670.828857 
	C494.670563,669.247864 495.130219,667.457825 493.001923,665.748352 
	C483.696136,667.482727 473.944336,669.289734 464.196960,671.120361 
	C456.984192,672.474976 456.475494,672.750427 456.496399,680.047180 
	C456.527374,690.847778 457.079224,701.645874 457.261169,712.447571 
	C457.323517,716.149414 459.200989,717.037048 463.252380,716.404846 
M494.701385,610.499817 
	C494.685974,604.347473 494.656189,598.195190 494.660645,592.042847 
	C494.663239,588.445312 493.007568,586.684448 489.369659,587.454224 
	C479.634125,589.514343 469.919098,591.671387 460.196503,593.792664 
	C458.072205,594.256165 456.590424,595.172729 456.587952,597.732971 
	C456.576416,609.702087 456.421844,621.671143 456.440369,633.640076 
	C456.444611,636.398132 457.951630,638.042969 460.944489,637.533936 
	C470.912354,635.838379 480.878784,634.132019 490.829407,632.339111 
	C493.407562,631.874573 494.816528,630.354858 494.740265,627.461121 
	C494.600189,622.143860 494.701202,616.820251 494.701385,610.499817 
M533.323364,543.291504 
	C533.577637,546.397827 532.117126,550.278442 537.016296,551.255005 
	C546.286743,553.102783 555.544861,555.012878 564.820923,556.831787 
	C568.875366,557.626770 570.668152,555.879944 570.628723,551.717041 
	C570.534424,541.742554 570.534912,531.765015 570.689636,521.791687 
	C570.738892,518.614929 569.447571,516.968079 566.562073,515.875244 
	C558.020264,512.640076 549.569275,509.166016 541.047852,505.875916 
	C534.947449,503.520569 533.332703,504.699280 533.315125,511.416382 
	C533.288147,521.724304 533.317383,532.032349 533.323364,543.291504 
M474.365326,511.961334 
	C469.909332,513.784119 465.486206,515.693665 460.984985,517.396912 
	C458.287445,518.417603 457.137573,520.086426 457.158447,523.015808 
	C457.229614,532.985474 457.047821,542.956848 457.103699,552.926758 
	C457.132355,558.034241 458.661346,559.149414 463.536682,558.016235 
	C472.419220,555.951660 481.260956,553.691040 490.192108,551.866455 
	C493.462799,551.198242 494.702911,549.763428 494.683655,546.554443 
	C494.609924,534.257568 494.601471,521.959717 494.680542,509.662872 
	C494.709808,505.106964 492.471680,504.632568 488.917328,506.053497 
	C484.293274,507.902161 479.674866,509.764801 474.365326,511.961334 
M536.294556,631.411804 
	C545.991028,632.857483 555.689697,634.289246 565.382935,635.755920 
	C569.097778,636.318054 570.652100,634.587524 570.644226,631.029541 
	C570.620239,620.197021 570.599304,609.364563 570.605164,598.532043 
	C570.606812,595.425171 569.357666,593.672058 566.087830,593.059875 
	C557.599426,591.470825 549.160522,589.616760 540.701904,587.868469 
	C535.194397,586.730103 533.401001,588.123352 533.360535,593.930237 
	C533.286316,604.595642 533.344482,615.261963 533.343811,625.927856 
	C533.343689,627.965454 533.354919,629.991089 536.294556,631.411804 
M402.520050,589.872681 
	C402.662018,596.843323 402.780060,603.814514 402.955963,610.784302 
	C403.043213,614.241882 404.305450,616.081909 408.273926,615.044922 
	C412.598755,613.914856 417.021118,613.138550 421.423645,612.331482 
	C424.767883,611.718445 426.081818,609.909363 426.049194,606.470459 
	C425.967316,597.834412 426.114929,589.194580 426.287170,580.558533 
	C426.362183,576.797729 424.475220,575.817505 421.229340,576.647339 
	C417.212830,577.674316 413.274323,579.033142 409.229309,579.914795 
	C404.151367,581.021667 401.735260,583.823608 402.520050,589.872681 
M601.322388,622.515259 
	C601.331116,626.671692 601.411194,630.829529 601.326965,634.984070 
	C601.253906,638.588135 602.997314,640.564636 606.427185,641.227722 
	C610.331726,641.982544 614.218201,642.866455 618.150085,643.433716 
	C621.801575,643.960510 623.840637,642.371155 623.802307,638.436584 
	C623.729309,630.955688 623.666748,623.472351 623.781860,615.992859 
	C623.828979,612.928345 622.296753,611.314880 619.649841,610.601379 
	C615.330688,609.437073 610.973572,608.404907 606.609985,607.416382 
	C603.247742,606.654724 601.506165,608.210449 601.400452,611.555237 
	C601.295471,614.877197 601.340881,618.203918 601.322388,622.515259 
z"/>
<path fill="#ffb81c" opacity="1.000000" stroke="none" 
	d="
M441.845703,392.135925 
	C424.675476,372.328522 417.059174,349.775238 418.496429,323.839264 
	C420.863678,281.120941 453.587341,242.353882 502.380859,237.015961 
	C554.005493,231.368317 598.161133,264.914276 607.095886,313.500275 
	C616.526611,364.783051 581.164001,414.666016 529.191589,423.401794 
	C494.466766,429.238525 465.725494,417.889557 441.845703,392.135925 
M491.026886,338.482697 
	C485.848633,333.296692 480.799500,327.972595 475.449768,322.969971 
	C471.430054,319.211060 466.720764,319.720337 463.221497,323.804871 
	C460.109100,327.437836 460.442444,332.302155 464.781982,336.730011 
	C475.156952,347.316101 485.785950,357.652802 496.234589,368.167480 
	C499.067017,371.017792 501.080658,370.376770 503.634094,367.637360 
	C517.603760,352.650513 531.738159,337.817444 545.780457,322.898132 
	C551.830139,316.470551 557.778564,309.947815 563.804016,303.497314 
	C566.876648,300.207916 567.683472,296.601349 565.500793,292.542145 
	C561.864746,285.780151 555.234558,285.600647 549.205505,292.048950 
	C534.644714,307.622528 520.096619,323.208130 505.492889,338.741394 
	C498.547028,346.129364 498.494781,346.080231 491.026886,338.482697 
z"/>
</g>
</svg>